<svg data-v-423bf9ae="" xmlns="http://www.w3.org/2000/svg" viewBox="0 0 539 101" class="iconLeft"><!----><!----><!----><g data-v-423bf9ae="" id="217d568b-6530-47df-98bc-3c98660a7458" fill="#14A9A9" transform="matrix(5.934717742604922,0,0,5.934717742604922,117.8445404818001,-6.033215026577501)"><path d="M5.05 14.35L6.29 9.06L6.78 6.92L6.82 6.92L7.29 9.06L8.53 14.35L10.95 14.35L13.22 4.58L11.20 4.58L10.26 9.27L9.74 11.98L9.70 11.98L9.10 9.27L8.01 4.58L5.68 4.58L4.61 9.27L3.99 11.98L3.95 11.98L3.43 9.27L2.51 4.58L0.41 4.58L2.62 14.35ZM21.35 14.35L21.35 12.46L16.83 12.46L16.83 10.35L20.71 10.35L20.71 8.47L16.83 8.47L16.83 6.47L21.35 6.47L21.35 4.58L14.70 4.58L14.70 14.35ZM26.36 14.52C28.80 14.52 30.17 13.22 30.17 11.34C30.17 9.66 29.20 8.76 27.20 8.44L26.24 8.29C25.42 8.16 25.07 7.91 25.07 7.24C25.07 6.65 25.54 6.29 26.49 6.29C27.50 6.29 28.13 6.66 28.59 7.21L30.00 5.78C29.20 4.90 28.08 4.41 26.61 4.41C24.32 4.41 22.95 5.63 22.95 7.38C22.95 9.02 23.88 10.02 25.94 10.29L26.91 10.42C27.82 10.54 28.04 10.93 28.04 11.47C28.04 12.18 27.54 12.64 26.50 12.64C25.55 12.64 24.71 12.26 24.05 11.52L22.65 12.94C23.49 13.86 24.65 14.52 26.36 14.52ZM38.33 6.47L38.33 4.58L30.91 4.58L30.91 6.47L33.56 6.47L33.56 14.35L35.69 14.35L35.69 6.47ZM42.78 14.52C45.22 14.52 46.59 13.22 46.59 11.34C46.59 9.66 45.63 8.76 43.62 8.44L42.66 8.29C41.85 8.16 41.50 7.91 41.50 7.24C41.50 6.65 41.96 6.29 42.91 6.29C43.92 6.29 44.55 6.66 45.01 7.21L46.42 5.78C45.63 4.90 44.51 4.41 43.04 4.41C40.74 4.41 39.37 5.63 39.37 7.38C39.37 9.02 40.31 10.02 42.36 10.29L43.33 10.42C44.24 10.54 44.46 10.93 44.46 11.47C44.46 12.18 43.96 12.64 42.92 12.64C41.97 12.64 41.13 12.26 40.47 11.52L39.07 12.94C39.91 13.86 41.08 14.52 42.78 14.52ZM52.63 14.35L52.63 12.66L51.37 12.66L51.37 6.27L52.63 6.27L52.63 4.58L47.98 4.58L47.98 6.27L49.24 6.27L49.24 12.66L47.98 12.66L47.98 14.35ZM54.40 14.35L58.09 14.35C60.68 14.35 62.38 12.71 62.38 9.46C62.38 6.22 60.68 4.58 58.09 4.58L54.40 4.58ZM56.53 12.46L56.53 6.47L58.09 6.47C59.35 6.47 60.13 7.15 60.13 8.71L60.13 10.22C60.13 11.77 59.35 12.46 58.09 12.46ZM70.81 14.35L70.81 12.46L66.29 12.46L66.29 10.35L70.17 10.35L70.17 8.47L66.29 8.47L66.29 6.47L70.81 6.47L70.81 4.58L64.16 4.58L64.16 14.35Z"></path></g><!----><g data-v-423bf9ae="" id="1990fcd7-0427-490e-bd95-7e43fd634aef" transform="matrix(1.0555555555555556,0,0,1.0555555555555556,-2.2777777645323027,-2.2777777910232544)" stroke="none" fill="#14A9A9"><switch><g><path d="M50 84.3c7.9 0 15.2-2.7 21-7.3l-1.2-.3c-1.2-.3-2.2-1.1-2.8-2.1-3.3 2.3-7 3.9-11.1 4.8.4-.4.8-.8.8-1 0-.1.3-.2.5-.3.5-.3 1-.6 1.2-.9.3-.5 1.4-1.6 1.8-1.8.6-.3 4.1-3.5 4.3-4 .6-1.3 1.3-2.8 1.8-3.1.8-.6.1-1.8-.2-2.2L66 66c-.3-.5-2.3-.7-2.6-.7-.4 0-2.1-.9-2.2-1.2 0-.6-1.7-2.2-2.1-2.2-.2 0-1.2-.2-1.8-.9-.7-.8-3-1.3-3.7-1.3-.6 0-1.6-.1-2.2-.4-.4-.4-1.4 0-2.4.4-.2.1-.4.2-.5.2-.3.1-2.3-.3-2.8-.5-.1-.1-.2-.9-.2-1.3 0-.5-.1-.8-.2-1-.1-.2-.6-.4-1.5-.6-.2-.1-.5-.1-.7-.2 0-.1.1-.4.2-.5.3-.7.5-1.2.3-1.6-.1-.1-.2-.2-.3-.2-.4-.1-1.1.3-1.7.8-.3.2-.7.5-.8.5-.4 0-1.2-.3-2.1-.9-.5-.3.1-2.1.4-2.9.1-.4.2-.7.3-.9 0-.2 1-.5 2.4-.5.4 0 .9-.1 1.5-.2.5-.1.9-.2 1.3-.2.2 0 .6.5.8.9.4.5.7.9 1.1.9.6-.1.5-.8.5-1.4v-.4c0-.3.8-1.6 1.4-1.9.7-.4 1.7-1.8 1.4-2.5 0-.3 1.3-1.1 1.7-1.4.2-.1.4-.2.5-.3.1-.1.3-.2.4-.3.4-.2 1-.5 1-1.3 0-.4 1.4-.6 2.2-.8.2 0 .4-.1.5-.1.5-.1.8-.2 1-.5.2-.3 0-.6-.1-1-.1-.1-.1-.2-.2-.3-.3-.7-.1-1.1.5-1.6.3-.2.8-.2 1.3-.3.6-.1 1.2-.1 1.8-.4.4-.2.6-.4.7-.6.1-.4-.1-.7-.3-.9-.1-.1-.2-.2-.2-.3-.3-.6-.8-1-1.2-1.3-.2-.2-.4-1-.5-1.5-.1-.3-.1-.6-.2-.8-.1-.2-.2-.3-.4-.4-.5-.2-1.2.1-1.6.3 0-.1-.1-.3-.1-.4-.1-.3-.1-.6-.3-.8-.1-.1-.4-.3-.6-.6-.4-.4-1-.9-1.3-1.2-.2-.2-.4-.2-.6-.2-.5.1-.9.7-1.3 1.3-.1.1-.1.1-.1.2-.6.9-.7 1.7-.3 2 0 0 .1.2-.1.5-.2.5-.5.8-.7.8-.6-.1-.7.7-.9 1.5 0 .3-.1.7-.2.9-.1-.1-.3-.6-.3-1.9v-.2c0-.2-.1-.3-.2-.4-.2-.2-.4-.1-.6-.1-.3 0-.4 0-.5-.1-.3-.5-1.9-1.1-2.5-1.4v-1.9c.2-.3 2.7-2 3.2-2.1.8-.3 2.8-1.6 3.1-1.9.4-.2.4-.5.4-.7-.1-.6-1.2-1.1-1.7-1.3-.6-.5-1.2-.5-1.9-.5-.4 0-.8 0-1.2-.1-1.7-.3-3.1-.3-4.3-.2-.9.1-2.3 0-3.2-.2-.4-.1-.8-.2-1.1-.2h-.6c3.5-1.4 7.3-2.2 11.3-2.2 4 0 7.9.8 11.4 2.3.1.4.2.8.4 1.2.4.9 1 2.4 1 3.5s.1 2.3 0 2.6c-.1.3 2.2 3 2.7 3 .5.1.9-.3 1.2-.8.3-.5.8-1.1 1.7-1.8.6-.4 2.1-.6 3.2-.7 1 1.1 2 2.3 2.9 3.5-.2.2-.5.4-.6.5-.4.4-1.6 1.6-1.5 2.6.1.9 1.1 2.1 2.4 2.7 1.2.6 1.4 1.9 1.4 2.1 0 .2 1.7 1.3 1.7 1.3s-.7 1.4-1.1 1.4c-.3 0-.6 1.4-.6 2 0 .6.7 1.6 1.5 2.1.8.6 2-1 2-1l.2-.1c.1.9.2 1.8.2 2.8-1 .2-2.3.7-2.7.9-.5.4-1.6 3.9-2.1 4.3-.5.3-1.5 5.1-1.6 5.6 0 .3.8 2.1 1.7 3.4.3.5.4 1.1.3 1.7l4.8.5c2.5-4.7 3.9-10.1 3.9-15.7 0-18.9-15.4-34.3-34.3-34.3S15.9 31.1 15.9 50 31.1 84.3 50 84.3zM28.1 29.7c.2.1.5.3.9.6.2.2.2 1.6.2 3.1v.2s1.3 3.1.1 5.5c-1.3 2.6-1 6.8-.4 7.7.6.8 3.4 4.5 3.8 4.9.3.3 1.3 3 1.4 3.3.1.3 1.9 2.6 3.9 2.6 1.1 0 2.5.6 3.3 1 .4.2.7.4 1 .4.1 0 .2.2.3.4.3.5.7 1.2 1.8 1.8.3.2.6.3.9.5 1 .6 2.4 1.4 2.5 1.6 0 .1-.2.3-.4.5-.6.7-1.7 1.9-1.4 3.5.4 2.2 3.5 4.9 4.6 5.6.7.4.3 5 0 5.8-.1.3-.2.8-.2 1.3h-.3c-16.5 0-29.9-13.4-29.9-29.9-.1-7.9 2.9-15.1 7.9-20.4zM92 38.6c.2.9 1.1 1.5 1.9 1.5.2 0 .4 0 .5-.1 1.1-.3 1.7-1.4 1.4-2.5-.5-2-1.2-4-2-5.9-.4-1-1.6-1.5-2.6-1.1-1 .4-1.5 1.6-1.1 2.6.7 1.9 1.4 3.7 1.9 5.5zM7.2 34.5c.3.1.5.2.8.2.8 0 1.5-.5 1.9-1.2.7-1.7 1.6-3.5 2.5-5.1.6-1 .2-2.2-.7-2.8-1-.6-2.2-.2-2.8.7-1 1.8-2 3.7-2.7 5.6-.6 1-.1 2.2 1 2.6zM84.4 23.4c.4.5 1 .8 1.6.8.4 0 .9-.1 1.2-.4.9-.7 1-1.9.4-2.8-1.3-1.6-2.6-3.2-4.1-4.7-.8-.8-2.1-.8-2.9 0-.8.8-.8 2.1 0 2.9 1.4 1.3 2.6 2.7 3.8 4.2zM17.8 19.9c.5 0 1-.2 1.4-.6 1.3-1.3 2.8-2.6 4.3-3.8.9-.7 1-1.9.4-2.8-.7-.9-1.9-1-2.8-.4-1.6 1.3-3.2 2.6-4.7 4.1-.8.8-.8 2.1 0 2.9.3.4.9.6 1.4.6zM50 6.5c1.9 0 3.7.1 5.6.4h.3c1 0 1.9-.7 2-1.8 0-1.1-.7-2.1-1.8-2.2-2-.3-4-.4-6.1-.4h-.1c-1.1 0-1.9.9-1.9 2s.9 2 2 2zM32.5 10c.3 0 .5-.1.8-.2 1.7-.7 3.5-1.3 5.3-1.8 1.1-.3 1.7-1.4 1.4-2.5-.3-1.1-1.4-1.7-2.5-1.4-2 .5-4 1.2-5.9 2-1 .4-1.5 1.6-1.1 2.6.4.9 1.2 1.3 2 1.3zM66.5 9.8c1.7.7 3.5 1.6 5.1 2.5.3.2.7.3 1 .3.7 0 1.4-.4 1.8-1 .6-1 .2-2.2-.7-2.8-1.8-1-3.7-2-5.6-2.7-1-.4-2.2.1-2.6 1.1-.5 1 0 2.2 1 2.6zM66.7 90.2c-1.7.7-3.5 1.3-5.4 1.8-1.1.3-1.7 1.4-1.4 2.5.2.9 1.1 1.5 1.9 1.5.2 0 .4 0 .5-.1 2-.5 4-1.2 5.9-2 1-.4 1.5-1.6 1.1-2.6-.4-1.1-1.6-1.6-2.6-1.1zM50 93.5c-1.9 0-3.8-.1-5.6-.4-1.1-.1-2.1.6-2.3 1.7-.1 1.1.6 2.1 1.7 2.3 2 .3 4.1.4 6.1.4 1.1 0 2-.9 2-2 .1-1.1-.8-2-1.9-2zM95.5 47.9c-1.1 0-2 1-2 2.1 0 1.9-.1 3.8-.4 5.7-.1 1.1.6 2.1 1.7 2.3h.3c1 0 1.9-.7 2-1.8.3-2 .4-4.1.4-6.2v-.2c0-1.1-.9-1.9-2-1.9zM15.6 76.5c-.7-.9-1.9-1-2.8-.4-.9.7-1 1.9-.4 2.8 1.3 1.6 2.6 3.2 4.1 4.7.4.4.9.6 1.4.6.5 0 1-.2 1.4-.6.8-.8.8-2.1 0-2.9-1.3-1.3-2.6-2.7-3.7-4.2zM8 61.3c-.3-1.1-1.4-1.7-2.5-1.4-1.1.3-1.7 1.4-1.4 2.5.5 2 1.2 4 2 5.9.4.7 1.1 1.2 1.9 1.2.3 0 .5-.1.8-.2 1-.4 1.5-1.6 1.1-2.6-.8-1.7-1.4-3.6-1.9-5.4zM33.4 90.2c-1.7-.7-3.5-1.6-5.1-2.5-1-.6-2.2-.2-2.8.7-.6 1-.2 2.2.7 2.8 1.8 1 3.7 2 5.6 2.7.3.1.5.2.8.2.8 0 1.5-.5 1.9-1.2.4-1.1-.1-2.3-1.1-2.7zM6.5 50c0-1.9.1-3.8.4-5.6.1-1.1-.6-2.1-1.7-2.3-1.2-.1-2.2.7-2.3 1.8-.3 2-.4 4.1-.4 6v.2c0 1.1.9 2 2 2s2-1 2-2.1z"></path><path d="M94.4 63.6c-1.7.1-3.4.9-4.5 2.2L86 70.4l-11.5-1.3c-.7-.1-1.3.2-1.8.7l-2.1 2.4c-.2.2-.1.5.2.6l10.9 2.8-4.7 6.6-4.4-.7c-.5-.1-1 .1-1.3.5l-.6.7c-.1.2-.1.4.1.5l3.8 2.4c-.3.7-.1 1.5.5 2s1.4.6 2.1.2l3 3.4c.1.2.4.2.6 0l.6-.7c.3-.4.4-.9.3-1.4L80.2 85l5.8-5.7 4.5 10.3c.1.2.4.3.6.1l2.1-2.4c.4-.5.6-1.2.4-1.8l-3.1-11.2 3.9-4.6c1.1-1.3 1.7-3.1 1.5-4.8-.1-.8-.8-1.3-1.5-1.3z"></path></g></switch></g><!----></svg>