<svg data-v-423bf9ae="" xmlns="http://www.w3.org/2000/svg" viewBox="0 0 417.80409285674403 60" class="font"><!----><!----><!----><g data-v-423bf9ae="" id="28041b0d-a33d-4af9-9929-372c18efa205" fill="black" transform="matrix(5.934717742604922,0,0,5.934717742604922,-2.433230514293655,-26.172104339321642)"><path d="M5.05 14.35L6.29 9.06L6.78 6.92L6.82 6.92L7.29 9.06L8.53 14.35L10.95 14.35L13.22 4.58L11.20 4.58L10.26 9.27L9.74 11.98L9.70 11.98L9.10 9.27L8.01 4.58L5.68 4.58L4.61 9.27L3.99 11.98L3.95 11.98L3.43 9.27L2.51 4.58L0.41 4.58L2.62 14.35ZM21.35 14.35L21.35 12.46L16.83 12.46L16.83 10.35L20.71 10.35L20.71 8.47L16.83 8.47L16.83 6.47L21.35 6.47L21.35 4.58L14.70 4.58L14.70 14.35ZM26.36 14.52C28.80 14.52 30.17 13.22 30.17 11.34C30.17 9.66 29.20 8.76 27.20 8.44L26.24 8.29C25.42 8.16 25.07 7.91 25.07 7.24C25.07 6.65 25.54 6.29 26.49 6.29C27.50 6.29 28.13 6.66 28.59 7.21L30.00 5.78C29.20 4.90 28.08 4.41 26.61 4.41C24.32 4.41 22.95 5.63 22.95 7.38C22.95 9.02 23.88 10.02 25.94 10.29L26.91 10.42C27.82 10.54 28.04 10.93 28.04 11.47C28.04 12.18 27.54 12.64 26.50 12.64C25.55 12.64 24.71 12.26 24.05 11.52L22.65 12.94C23.49 13.86 24.65 14.52 26.36 14.52ZM38.33 6.47L38.33 4.58L30.91 4.58L30.91 6.47L33.56 6.47L33.56 14.35L35.69 14.35L35.69 6.47ZM42.78 14.52C45.22 14.52 46.59 13.22 46.59 11.34C46.59 9.66 45.63 8.76 43.62 8.44L42.66 8.29C41.85 8.16 41.50 7.91 41.50 7.24C41.50 6.65 41.96 6.29 42.91 6.29C43.92 6.29 44.55 6.66 45.01 7.21L46.42 5.78C45.63 4.90 44.51 4.41 43.04 4.41C40.74 4.41 39.37 5.63 39.37 7.38C39.37 9.02 40.31 10.02 42.36 10.29L43.33 10.42C44.24 10.54 44.46 10.93 44.46 11.47C44.46 12.18 43.96 12.64 42.92 12.64C41.97 12.64 41.13 12.26 40.47 11.52L39.07 12.94C39.91 13.86 41.08 14.52 42.78 14.52ZM52.63 14.35L52.63 12.66L51.37 12.66L51.37 6.27L52.63 6.27L52.63 4.58L47.98 4.58L47.98 6.27L49.24 6.27L49.24 12.66L47.98 12.66L47.98 14.35ZM54.40 14.35L58.09 14.35C60.68 14.35 62.38 12.71 62.38 9.46C62.38 6.22 60.68 4.58 58.09 4.58L54.40 4.58ZM56.53 12.46L56.53 6.47L58.09 6.47C59.35 6.47 60.13 7.15 60.13 8.71L60.13 10.22C60.13 11.77 59.35 12.46 58.09 12.46ZM70.81 14.35L70.81 12.46L66.29 12.46L66.29 10.35L70.17 10.35L70.17 8.47L66.29 8.47L66.29 6.47L70.81 6.47L70.81 4.58L64.16 4.58L64.16 14.35Z"></path></g><!----><!----></svg>